<svg xmlns="http://www.w3.org/2000/svg" viewBox="0 0 680 320" width="680" height="320" style="background:#091F2C;border-radius:12px;font-family:'Outfit',system-ui,sans-serif">

  <!-- Header -->
  <text x="50" y="24" fill="#fff" font-size="16" font-weight="600">CRDM</text>
  <text x="108" y="24" fill="#fff" font-size="16" font-weight="400">$64.35</text>
  <text x="180" y="24" fill="#2ED8A3" font-size="13">+0.87 (+1.37%)</text>
  <text x="620" y="24" fill="#8FA8B8" font-size="11" text-anchor="end">NYSE · 1Y</text>

  <!-- Grid lines -->
  <line x1="50" y1="245.3" x2="620" y2="245.3" stroke="rgba(255,255,255,0.06)" stroke-width="0.5"/>
  <text x="628" y="249.3" fill="#8FA8B8" font-size="10">$50</text>
  <line x1="50" y1="192.7" x2="620" y2="192.7" stroke="rgba(255,255,255,0.06)" stroke-width="0.5"/>
  <text x="628" y="196.7" fill="#8FA8B8" font-size="10">$55</text>
  <line x1="50" y1="140.1" x2="620" y2="140.1" stroke="rgba(255,255,255,0.06)" stroke-width="0.5"/>
  <text x="628" y="144.1" fill="#8FA8B8" font-size="10">$60</text>
  <line x1="50" y1="87.5" x2="620" y2="87.5" stroke="rgba(255,255,255,0.06)" stroke-width="0.5"/>
  <text x="628" y="91.5" fill="#8FA8B8" font-size="10">$65</text>
  <text x="75.0" y="300" fill="#8FA8B8" font-size="10" text-anchor="middle">Apr</text>
  <text x="124.9" y="300" fill="#8FA8B8" font-size="10" text-anchor="middle">May</text>
  <text x="174.9" y="300" fill="#8FA8B8" font-size="10" text-anchor="middle">Jun</text>
  <text x="222.6" y="300" fill="#8FA8B8" font-size="10" text-anchor="middle">Jul</text>
  <text x="274.8" y="300" fill="#8FA8B8" font-size="10" text-anchor="middle">Aug</text>
  <text x="322.5" y="300" fill="#8FA8B8" font-size="10" text-anchor="middle">Sep</text>
  <text x="372.5" y="300" fill="#8FA8B8" font-size="10" text-anchor="middle">Oct</text>
  <text x="424.7" y="300" fill="#8FA8B8" font-size="10" text-anchor="middle">Nov</text>
  <text x="470.1" y="300" fill="#8FA8B8" font-size="10" text-anchor="middle">Dec</text>
  <text x="522.4" y="300" fill="#8FA8B8" font-size="10" text-anchor="middle">Jan</text>
  <text x="572.3" y="300" fill="#8FA8B8" font-size="10" text-anchor="middle">Feb</text>
  <text x="617.7" y="300" fill="#8FA8B8" font-size="10" text-anchor="middle">Mar</text>

  <!-- Chart fill -->
  <polygon points="50.0,280 50.0,255.3 52.3,257.4 54.5,258.0 56.8,259.0 59.1,256.8 61.4,254.9 63.6,251.7 65.9,253.5 68.2,253.2 70.4,255.4 72.7,256.3 75.0,255.5 77.3,257.7 79.5,258.8 81.8,257.1 84.1,256.0 86.3,257.0 88.6,255.7 90.9,253.0 93.1,255.3 95.4,252.7 97.7,250.7 100.0,250.9 102.2,252.2 104.5,248.7 106.8,248.9 109.0,250.7 111.3,252.4 113.6,249.5 115.9,248.0 118.1,245.4 120.4,243.2 122.7,242.1 124.9,238.4 127.2,238.4 129.5,237.3 131.8,234.4 134.0,232.9 136.3,229.7 138.6,228.5 140.8,226.4 143.1,228.6 145.4,229.5 147.6,230.2 149.9,232.0 152.2,233.1 154.5,234.9 156.7,235.5 159.0,233.8 161.3,233.9 163.5,234.0 165.8,235.1 168.1,235.8 170.4,232.3 172.6,230.6 174.9,229.1 177.2,230.5 179.4,228.2 181.7,229.5 184.0,229.6 186.3,225.6 188.5,223.9 190.8,222.8 193.1,220.8 195.3,217.7 197.6,215.1 199.9,216.2 202.2,218.5 204.4,219.0 206.7,219.7 209.0,220.9 211.2,217.1 213.5,213.9 215.8,214.4 218.0,212.5 220.3,212.5 222.6,208.9 224.9,208.4 227.1,209.2 229.4,210.1 231.7,208.9 233.9,209.7 236.2,208.4 238.5,204.9 240.8,204.8 243.0,206.0 245.3,201.8 247.6,200.9 249.8,203.0 252.1,205.2 254.4,207.1 256.7,205.5 258.9,202.7 261.2,202.5 263.5,204.7 265.7,204.7 268.0,200.6 270.3,199.5 272.5,195.6 274.8,192.3 277.1,194.9 279.4,192.6 281.6,190.5 283.9,189.5 286.2,190.4 288.4,188.6 290.7,190.5 293.0,190.2 295.3,189.8 297.5,185.8 299.8,182.3 302.1,183.2 304.3,182.4 306.6,183.9 308.9,180.2 311.2,176.8 313.4,177.5 315.7,175.7 318.0,174.1 320.2,175.8 322.5,173.2 324.8,172.1 327.1,169.3 329.3,168.3 331.6,171.2 333.9,171.6 336.1,174.3 338.4,170.4 340.7,166.8 342.9,163.7 345.2,164.3 347.5,166.7 349.8,163.2 352.0,159.2 354.3,161.4 356.6,160.7 358.8,163.1 361.1,160.4 363.4,157.6 365.7,159.6 367.9,159.0 370.2,157.8 372.5,158.7 374.7,155.3 377.0,155.0 379.3,156.3 381.6,155.3 383.8,152.7 386.1,154.2 388.4,154.7 390.6,150.3 392.9,148.4 395.2,148.1 397.5,147.2 399.7,149.2 402.0,150.4 404.3,150.9 406.5,149.4 408.8,150.6 411.1,151.9 413.3,154.3 415.6,152.5 417.9,153.8 420.2,150.0 422.4,146.5 424.7,149.0 427.0,150.1 429.2,148.0 431.5,149.4 433.8,151.4 436.1,147.3 438.3,146.0 440.6,145.4 442.9,142.4 445.1,139.4 447.4,140.9 449.7,143.2 452.0,142.9 454.2,142.7 456.5,142.1 458.8,139.6 461.0,137.5 463.3,133.0 465.6,135.3 467.8,135.2 470.1,135.6 472.4,132.1 474.7,133.2 476.9,134.8 479.2,134.3 481.5,134.1 483.7,135.1 486.0,136.2 488.3,132.1 490.6,131.8 492.8,128.2 495.1,127.1 497.4,129.7 499.6,125.1 501.9,121.7 504.2,117.2 506.5,113.1 508.7,109.5 511.0,111.3 513.3,110.7 515.5,112.2 517.8,112.2 520.1,114.8 522.4,115.0 524.6,110.4 526.9,111.4 529.2,108.4 531.4,107.8 533.7,107.7 536.0,103.2 538.2,98.5 540.5,97.2 542.8,94.7 545.1,96.7 547.3,97.5 549.6,92.9 551.9,91.4 554.1,90.3 556.4,87.4 558.7,90.3 561.0,88.8 563.2,88.0 565.5,84.3 567.8,86.3 570.0,81.7 572.3,84.3 574.6,86.1 576.9,84.5 579.1,82.3 581.4,83.7 583.7,86.0 585.9,82.0 588.2,83.2 590.5,81.7 592.7,79.9 595.0,79.8 597.3,78.2 599.6,77.2 601.8,72.8 604.1,74.4 606.4,71.9 608.6,73.2 610.9,73.2 613.2,71.0 615.5,71.9 617.7,72.6 620.0,94.4 620.0,280" fill="#2ED8A3" opacity="0.08"/>

  <!-- Chart line -->
  <polyline points="50.0,255.3 52.3,257.4 54.5,258.0 56.8,259.0 59.1,256.8 61.4,254.9 63.6,251.7 65.9,253.5 68.2,253.2 70.4,255.4 72.7,256.3 75.0,255.5 77.3,257.7 79.5,258.8 81.8,257.1 84.1,256.0 86.3,257.0 88.6,255.7 90.9,253.0 93.1,255.3 95.4,252.7 97.7,250.7 100.0,250.9 102.2,252.2 104.5,248.7 106.8,248.9 109.0,250.7 111.3,252.4 113.6,249.5 115.9,248.0 118.1,245.4 120.4,243.2 122.7,242.1 124.9,238.4 127.2,238.4 129.5,237.3 131.8,234.4 134.0,232.9 136.3,229.7 138.6,228.5 140.8,226.4 143.1,228.6 145.4,229.5 147.6,230.2 149.9,232.0 152.2,233.1 154.5,234.9 156.7,235.5 159.0,233.8 161.3,233.9 163.5,234.0 165.8,235.1 168.1,235.8 170.4,232.3 172.6,230.6 174.9,229.1 177.2,230.5 179.4,228.2 181.7,229.5 184.0,229.6 186.3,225.6 188.5,223.9 190.8,222.8 193.1,220.8 195.3,217.7 197.6,215.1 199.9,216.2 202.2,218.5 204.4,219.0 206.7,219.7 209.0,220.9 211.2,217.1 213.5,213.9 215.8,214.4 218.0,212.5 220.3,212.5 222.6,208.9 224.9,208.4 227.1,209.2 229.4,210.1 231.7,208.9 233.9,209.7 236.2,208.4 238.5,204.9 240.8,204.8 243.0,206.0 245.3,201.8 247.6,200.9 249.8,203.0 252.1,205.2 254.4,207.1 256.7,205.5 258.9,202.7 261.2,202.5 263.5,204.7 265.7,204.7 268.0,200.6 270.3,199.5 272.5,195.6 274.8,192.3 277.1,194.9 279.4,192.6 281.6,190.5 283.9,189.5 286.2,190.4 288.4,188.6 290.7,190.5 293.0,190.2 295.3,189.8 297.5,185.8 299.8,182.3 302.1,183.2 304.3,182.4 306.6,183.9 308.9,180.2 311.2,176.8 313.4,177.5 315.7,175.7 318.0,174.1 320.2,175.8 322.5,173.2 324.8,172.1 327.1,169.3 329.3,168.3 331.6,171.2 333.9,171.6 336.1,174.3 338.4,170.4 340.7,166.8 342.9,163.7 345.2,164.3 347.5,166.7 349.8,163.2 352.0,159.2 354.3,161.4 356.6,160.7 358.8,163.1 361.1,160.4 363.4,157.6 365.7,159.6 367.9,159.0 370.2,157.8 372.5,158.7 374.7,155.3 377.0,155.0 379.3,156.3 381.6,155.3 383.8,152.7 386.1,154.2 388.4,154.7 390.6,150.3 392.9,148.4 395.2,148.1 397.5,147.2 399.7,149.2 402.0,150.4 404.3,150.9 406.5,149.4 408.8,150.6 411.1,151.9 413.3,154.3 415.6,152.5 417.9,153.8 420.2,150.0 422.4,146.5 424.7,149.0 427.0,150.1 429.2,148.0 431.5,149.4 433.8,151.4 436.1,147.3 438.3,146.0 440.6,145.4 442.9,142.4 445.1,139.4 447.4,140.9 449.7,143.2 452.0,142.9 454.2,142.7 456.5,142.1 458.8,139.6 461.0,137.5 463.3,133.0 465.6,135.3 467.8,135.2 470.1,135.6 472.4,132.1 474.7,133.2 476.9,134.8 479.2,134.3 481.5,134.1 483.7,135.1 486.0,136.2 488.3,132.1 490.6,131.8 492.8,128.2 495.1,127.1 497.4,129.7 499.6,125.1 501.9,121.7 504.2,117.2 506.5,113.1 508.7,109.5 511.0,111.3 513.3,110.7 515.5,112.2 517.8,112.2 520.1,114.8 522.4,115.0 524.6,110.4 526.9,111.4 529.2,108.4 531.4,107.8 533.7,107.7 536.0,103.2 538.2,98.5 540.5,97.2 542.8,94.7 545.1,96.7 547.3,97.5 549.6,92.9 551.9,91.4 554.1,90.3 556.4,87.4 558.7,90.3 561.0,88.8 563.2,88.0 565.5,84.3 567.8,86.3 570.0,81.7 572.3,84.3 574.6,86.1 576.9,84.5 579.1,82.3 581.4,83.7 583.7,86.0 585.9,82.0 588.2,83.2 590.5,81.7 592.7,79.9 595.0,79.8 597.3,78.2 599.6,77.2 601.8,72.8 604.1,74.4 606.4,71.9 608.6,73.2 610.9,73.2 613.2,71.0 615.5,71.9 617.7,72.6 620.0,94.4" fill="none" stroke="#2ED8A3" stroke-width="1.5" stroke-linejoin="round" stroke-linecap="round"/>

  <!-- Current price dot -->
  <circle cx="620.0" cy="94.4" r="3" fill="#2ED8A3"/>
  <circle cx="620.0" cy="94.4" r="6" fill="#2ED8A3" opacity="0.2"/>

</svg>